<?xml version="1.0"?>
<svg xmlns="http://www.w3.org/2000/svg" viewBox="0 0 24 24" enable-background="new 0 0 24 24">
    <path
        style="text-indent:0;text-align:start;line-height:normal;text-transform:none;block-progression:tb;-inkscape-font-specification:Bitstream Vera Sans"
        d="M 12 0.0625 C 9.2044842 0.0625 7.5875425 0.42930223 6.625 0.875 C 6.1437287 1.0978489 5.8335388 1.3454669 5.625 1.5625 C 5.4164612 1.7795331 5.28125 2.0625 5.28125 2.0625 A 0.76626249 0.76626249 0 1 0 6.71875 2.59375 C 6.7833362 2.5265331 6.9440213 2.4061511 7.28125 2.25 C 7.5039545 2.1468784 7.8517485 2.0385646 8.25 1.9375 L 9.25 4.1875 C 4.7366323 4.8772814 4 7.2232626 4 8.03125 L 4 18.96875 C 4 20.09675 4.90225 21 6.03125 21 L 6.4375 21 L 5.375 22.59375 A 0.750075 0.750075 0 1 0 6.625 23.40625 L 8.21875 21 L 15.78125 21 L 17.375 23.40625 A 0.750075 0.750075 0 1 0 18.625 22.59375 L 17.5625 21 L 17.96875 21 C 19.09675 21 20 20.09775 20 18.96875 L 20 8.03125 C 20 7.1697367 19.263368 4.864597 14.75 4.1875 L 15.75 1.9375 C 16.148252 2.0385646 16.496046 2.1468784 16.71875 2.25 C 17.055979 2.4061511 17.216664 2.5265331 17.28125 2.59375 A 0.76626249 0.76626249 0 1 0 18.71875 2.0625 C 18.71875 2.0625 18.583539 1.7795331 18.375 1.5625 C 18.166461 1.3454669 17.856271 1.0978489 17.375 0.875 C 16.412457 0.42930223 14.795516 0.0625 12 0.0625 z M 12 1.5625 C 12.896244 1.5625 13.589994 1.6189099 14.21875 1.6875 L 13.1875 4.03125 C 12.812755 4.0109477 12.416114 4 12 4 C 11.583886 4 11.187245 4.0105364 10.8125 4.03125 L 9.78125 1.6875 C 10.410006 1.6189099 11.103756 1.5625 12 1.5625 z M 10.4375 6 L 13.5625 6 C 13.8035 6 14 6.1965 14 6.4375 L 14 6.5625 C 14 6.8035 13.8035 7 13.5625 7 L 10.4375 7 C 10.1965 7 10 6.8035 10 6.5625 L 10 6.4375 C 10 6.1965 10.1965 6 10.4375 6 z M 6.875 8 L 17.125 8 C 17.602 8 18 8.398 18 8.875 L 18 14.125 C 18 14.602 17.602 15 17.125 15 L 6.875 15 C 6.398 15 6 14.602 6 14.125 L 6 8.875 C 6 8.398 6.398 8 6.875 8 z M 7.5 16 C 8.328 16 9 16.672 9 17.5 C 9 18.328 8.328 19 7.5 19 C 6.672 19 6 18.328 6 17.5 C 6 16.672 6.672 16 7.5 16 z M 16.5 16 C 17.328 16 18 16.672 18 17.5 C 18 18.328 17.328 19 16.5 19 C 15.672 19 15 18.328 15 17.5 C 15 16.672 15.672 16 16.5 16 z"
        overflow="visible" enable-background="accumulate" font-family="Bitstream Vera Sans" />
</svg>
