<?xml version="1.0"?>
<svg xmlns="http://www.w3.org/2000/svg" viewBox="0 0 24 24" enable-background="new 0 0 24 24">
    <path
        style="text-indent:0;text-align:start;line-height:normal;text-transform:none;block-progression:tb;-inkscape-font-specification:Bitstream Vera Sans"
        d="M 18 0.21875 A 0.750075 0.750075 0 0 0 17.84375 0.25 A 0.750075 0.750075 0 0 0 17.375 0.59375 L 15.9375 2.75 C 15.821019 2.3268519 15.46 2 15 2 L 9 2 C 8.54 2 8.1789815 2.3268519 8.0625 2.75 L 6.625 0.59375 A 0.750075 0.750075 0 0 0 5.84375 0.25 A 0.750075 0.750075 0 0 0 5.375 1.40625 L 6.71875 3.40625 C 4.45613 3.9631268 4.0669281 5.2809515 4 6 C 4 6 3.661 8.0764403 3.375 10 L 3 10 C 2.448 10 2 10.448 2 11 L 2 13 C 2 13.552 2.448 14 3 14 L 3 20 C 3 20.739893 3.4031027 21.372804 4 21.71875 L 4 23.28125 C 4 23.67125 4.32875 24 4.71875 24 L 7.28125 24 C 7.67125 24 8 23.67125 8 23.28125 L 8 22 L 16 22 L 16 23.28125 C 16 23.67125 16.32875 24 16.71875 24 L 19.28125 24 C 19.67125 24 20 23.67125 20 23.28125 L 20 21.71875 C 20.596897 21.372804 21 20.739893 21 20 L 21 14 C 21.552 14 22 13.552 22 13 L 22 11 C 22 10.448 21.552 10 21 10 L 20.625 10 C 20.339 8.0764403 20 6 20 6 C 19.923633 5.2809515 19.539225 3.9629178 17.28125 3.40625 L 18.625 1.40625 A 0.750075 0.750075 0 0 0 18 0.21875 z M 9.5 3 L 14.5 3 C 14.776 3 15 3.224 15 3.5 C 15 3.776 14.776 4 14.5 4 L 9.5 4 C 9.224 4 9 3.776 9 3.5 C 9 3.224 9.224 3 9.5 3 z M 12 5.96875 C 17.391 5.96875 18.22525 6.788 18.40625 7.75 C 18.58725 8.712 18.90625 12 18.90625 12 C 18.95225 12.549 18.55 13 18 13 L 6 13 C 5.45 13 5.04775 12.548 5.09375 12 C 5.09375 12 5.46175 8.582 5.59375 7.75 C 5.72575 6.918 6.609 5.96875 12 5.96875 z M 6.5 16 C 7.328 16 8 16.672 8 17.5 C 8 18.328 7.328 19 6.5 19 C 5.672 19 5 18.328 5 17.5 C 5 16.672 5.672 16 6.5 16 z M 17.5 16 C 18.328 16 19 16.672 19 17.5 C 19 18.328 18.328 19 17.5 19 C 16.672 19 16 18.328 16 17.5 C 16 16.672 16.672 16 17.5 16 z"
        overflow="visible" enable-background="accumulate" font-family="Bitstream Vera Sans" />
</svg>
